<svg xmlns="http://www.w3.org/2000/svg" width="460" height="179"><path fill="none" stroke="#000" stroke-width="2" stroke-linecap="round" stroke-linejoin="round" d="M14 80c0 .09.78 4.48 0 5-1.41.94-7.35 1.49-9 1-.75-.23-.39-3.08-1-4-.54-.8-2.86-1.18-3-2-.38-2.27.14-7.08 1-10 .69-2.35 2.48-5.29 4-7 .85-.95 3-1.16 4-2 .81-.67 1.14-2.57 2-3 1.98-.99 5.37-1.62 8-2 1.92-.27 4.84-.89 6 0 2.35 1.81 5.4 6.62 7 10 1.21 2.55 1.58 6.03 2 9 .23 1.61.34 3.45 0 5-.93 4.21-2.25 8.97-4 13-1.5 3.45-4.35 6.54-6 10-1.65 3.47-2.31 7.61-4 11-1.56 3.13-4.45 5.9-6 9l-3 9M40 77c.16-.21 5.7-8.35 9-12 2.96-3.28 6.51-6.48 10-9 2.32-1.68 5.33-3.22 8-4 2.7-.79 6.94-1.51 9-1 1.14.28 2.23 2.58 3 4 1.18 2.16 2.75 4.77 3 7 .36 3.24-.33 7.66-1 11-.27 1.35-1.16 3-2 4-.67.81-2.26 1.15-3 2-3.37 3.89-7.25 8.42-10 13-3.15 5.25-6.59 11.76-8 17-.68 2.52-.09 6.69 1 9 1.28 2.71 4.74 6.5 7 8 1.06.71 3.41.25 5 0 2.63-.4 6.32-.47 8-2 4.66-4.23 13.59-17.29 14-18 .13-.22-4.44 2.44-6 4-1.56 1.56-3.3 4.07-4 6-.49 1.34-.72 4.17 0 5 1.1 1.26 4.74 2.48 7 3 1.78.41 4.38.54 6 0 1.95-.65 4.73-2.55 6-4 .73-.83.45-2.8 1-4 1.07-2.34 2.2-5.83 4-7 3.04-1.97 10.19-3.81 13-4 .75-.05 2.08 3 2 3-.09 0-2.04-3-3-3-2.15 0-6.7 1.74-9 3-.87.48-1.2 2.46-2 3-.92.61-3.33.23-4 1-1.24 1.42-2.83 5.08-3 7-.1 1.13 1.04 3.91 2 4 4.09.39 13.43-.99 19-2 1.05-.19 2.22-1.22 3-2 .78-.78 1.15-2.29 2-3 2.89-2.41 7.45-4.2 10-7 4.06-4.45 8.08-10.54 11-16 1.9-3.55 2.41-8.36 4-12 .63-1.44 2.32-2.63 3-4 .56-1.13.39-3.08 1-4 .54-.8 2.22-1.22 3-2 .78-.78 1.47-1.95 2-3 .79-1.57 1.42-3.26 2-5 1.12-3.37 1.76-6.73 3-10 1.44-3.78 3.87-7.23 5-11 1.82-6.06 2.43-13.24 4-19 .29-1.07 2.02-3.06 2-3-.06.15-2.99 5.23-4 8-1.64 4.51-2.17 9.68-4 14-1.74 4.12-5.02 8.04-7 12-.59 1.17-.41 2.83-1 4-1.98 3.96-5.02 8.04-7 12-.59 1.17-.39 2.87-1 4-1.6 2.97-4.56 5.95-6 9-1.09 2.33-.84 5.69-2 8-2.33 4.67-6.46 9.44-9 14-.63 1.13-.41 2.96-1 4-.61 1.07-2.22 1.89-3 3-1.48 2.12-4 7-4 7s2.93-4.66 4-7c.55-1.2.26-3.06 1-4 2.53-3.22 7.11-6.63 10-10 .91-1.07 1.13-3.27 2-4 .8-.67 2.88-.39 4-1 2.33-1.27 5.1-4.48 7-5 .99-.27 3.62 1.01 4 2 .94 2.44 1.21 7.82 1 11-.09 1.29-1.13 3.27-2 4-.8.67-2.96.41-4 1-1.07.61-1.88 2.33-3 3-2.01 1.21-6.05 3.27-7 3-.62-.18-.1-4.9 0-5 .08-.08 1 2.72 1 4 0 2.81-1.84 7.32-1 9 .71 1.42 4.7 2.69 7 3 4.53.62 10.78.92 15 0 2.65-.58 5.47-4.03 8-5h5M246 32c.03-.07 1.09-3.09 2-4 1.18-1.18 3.36-2.59 5-3 1.97-.49 5.53-.74 7 0 1.23.61 2.84 3.36 3 5 .42 4.22-.12 10.8-1 15-.29 1.4-1.84 2.84-3 4-2.79 2.79-6.14 6.48-9 8-1.42.76-4.22.41-6 0-2.26-.52-5.33-1.67-7-3-1.28-1.02-2.79-3.39-3-5-.37-2.78-.13-7.74 1-10 .81-1.62 4.34-2.55 6-4 .83-.73 1.12-2.42 2-3 2.72-1.81 6.84-3.95 10-5 1.42-.47 3.62-.34 5 0 1 .25 2.22 1.22 3 2 .78.78 1.96 1.99 2 3 .25 7-.44 16.83-1 25-.09 1.35-.41 2.96-1 4-.61 1.07-2.6 1.86-3 3-1.36 3.86-1.64 9.52-3 14-.94 3.08-2.46 6.07-4 9-1.83 3.47-3.74 6.83-6 10-2.76 3.86-6.63 7.44-9 11-.69 1.03-.45 2.8-1 4-1.07 2.34-2.47 4.76-4 7-2.85 4.16-8.5 11.65-9 12l2-7"/><path fill="none" stroke="#000" stroke-width="2" stroke-linecap="round" stroke-linejoin="round" d="M311 17c-.09 0-4.01-.76-5 0-2.54 1.95-5.72 6.49-8 10-1.99 3.06-3.02 6.85-5 10-3.69 5.87-7.72 11.43-12 17-2.48 3.22-5.09 6.22-8 9-4.12 3.92-9.06 7.06-13 11-2.64 2.64-5.18 5.85-7 9-1.72 2.97-2.37 7.15-4 10-.86 1.5-2.51 3.08-4 4-2.59 1.6-7.23 4-9 4-.81 0-1.76-2.69-2-4-.37-2.05-.81-5.52 0-7 .83-1.52 3.98-3.22 6-4 1.98-.76 5.01-1.18 7-1 1.26.11 3.55 1.09 4 2 .61 1.22.43 4.14 0 6-1.81 7.75-5.39 16.2-7 24-.64 3.12-.72 7.85 0 10 .32.96 2.8 1.85 4 2 1.11.14 3.33-.33 4-1 .67-.67.26-3.16 1-4 1.55-1.74 4.84-3.13 7-5 2.84-2.46 5.27-5.72 8-8 1.08-.9 2.7-1.71 4-2 1.46-.32 5.16.16 5 0-.32-.32-6.75-4-9-4-1.46 0-4.1 2.4-5 4-1.77 3.15-4.46 9.41-4 12 .31 1.76 4.77 4.07 7 5 1.3.54 4 .67 5 0 1.44-.96 3.64-4.06 4-6 .51-2.7-1-9.82-1-10 0-.07 1.07 2.73 1 4-.24 4.65-2.37 11.82-2 15 .11.94 2.69 1.74 4 2 1.76.35 4.24.35 6 0 1.31-.26 3.46-1.01 4-2 1.11-2.03 1-6.16 2-9 1.3-3.73 4.69-11.38 5-11 .41.51-1.6 12.2-1 16 .19 1.18 2.78 2.7 4 3 1 .25 3.23-.23 4-1 1.76-1.76 3.7-5.24 5-8 1.31-2.78 2.61-8.61 3-9 .21-.21.92 3.33 1 5 .25 4.91-.45 10.31 0 15 .19 1.98 1.07 4.52 2 6 .53.84 2.08 1.87 3 2 1.05.15 2.8-.45 4-1 2.34-1.07 4.86-2.42 7-4 4.16-3.06 10.13-5.97 12-10 5.48-11.84 7.76-29.53 13-44 4.5-12.42 11.65-24.87 16-36 .55-1.41-.35-3.49 0-5 .6-2.58 2.58-5.3 3-8 1.19-7.6.96-16.44 2-24 .23-1.69 2.06-5.08 2-5-.18.26-6.9 9.74-9 15-4.41 11.03-6.33 23.6-11 35-9.12 22.24-19.85 42.42-30 65-3.69 8.2-6.23 15.94-10 24l-19 38M339 131c.07-.02 3.08-.39 4-1 .8-.54 1.14-2.69 2-3 2.15-.78 7.71-1.72 9-1 .85.47-.63 5.91 0 6 .9.13 5.1-4.48 7-5 .99-.27 2.99 2.13 4 2 1.12-.14 2.9-1.9 4-3 .8-.8 1.51-3.1 2-3 .67.13 2.6 2.61 3 4 .8 2.8.11 8.05 1 10 .36.8 2.78 1 4 1 1.22 0 3.33-.33 4-1 .67-.67.39-3.08 1-4 .54-.8 1.93-1.52 3-2 2.52-1.15 7.59-2.59 8-3 .2-.2-2.85-1.13-4-1-1.5.17-4.01 1.01-5 2-.99.99-1.68 3.38-2 5-.3 1.51-.34 3.62 0 5 .25 1 1.18 2.53 2 3 1.16.66 3.71 1.35 5 1 1.83-.5 5.11-2.51 6-4 .74-1.24-.51-4.65 0-6 .3-.81 2.3-2.12 3-2 .82.14 2.46 1.92 3 3 .65 1.3.27 4.12 1 5 .59.71 2.78 1 4 1 1.22 0 3.18-.3 4-1 1.16-1 2.56-3.37 3-5 .46-1.68-.5-4.51 0-6 .35-1.06 2.52-3.34 3-3 1.01.72 3.55 7.89 4 8 .35.09-.64-5.55 0-7 .41-.93 3.25-2.32 4-2 .98.42 2.16 5.17 3 5 1.43-.29 5.26-6.13 7-7 .64-.32 2.27 1.17 3 2 1.45 1.66 2.47 4.47 4 6 1.24 1.24 3.38 2.8 5 3l11-1"/></svg>